<?xml version="1.0" encoding="utf-8"?>
<!-- Svg Vector Icons : http://www.onlinewebfonts.com/icon -->
<!DOCTYPE svg PUBLIC "-//W3C//DTD SVG 1.1//EN" "http://www.w3.org/Graphics/SVG/1.1/DTD/svg11.dtd">
<svg version="1.1" xmlns="http://www.w3.org/2000/svg" xmlns:xlink="http://www.w3.org/1999/xlink" x="0px" y="0px" viewBox="0 0 1000 1000" enable-background="new 0 0 1000 1000" xml:space="preserve">
<metadata> Svg Vector Icons : http://www.onlinewebfonts.com/icon </metadata>
<g><g transform="translate(0.000000,511.000000) scale(0.100000,-0.100000)"><path d="M3069.6,4965c-50.7-50.7-52.8-82.3-10.6-183.7c16.9-40.1,31.7-78.1,31.7-80.2c0-4.2-101.3,25.3-223.8,67.6c-249.2,82.3-312.5,78.1-337.8-27.5c-16.9-69.7,8.4-116.1,86.6-154.1l59.1-29.6l-128.8-57c-325.2-149.9-660.9-430.7-891-755.9c-240.7-337.8-333.6-580.7-352.6-920.6l-12.7-206.9l-139.4-141.5c-247.1-251.3-350.5-502.5-350.5-857.3c0-377.9,103.5-612.3,394.8-901.6c101.3-101.3,185.8-187.9,185.8-194.2c0-6.3-92.9-82.3-206.9-166.8C899,146.6,776.5,7.2,588.6-309.5C328.9-744.4,282.5-911.2,282.5-1424.3c0-424.4,6.3-435,223.8-451.9l143.6-10.5l29.6-116.1c97.1-392.7,403.3-817.1,800.3-1114.8c164.7-124.6,534.2-318.8,709.4-375.8c67.6-21.1,120.4-44.4,120.4-54.9c0-10.6-38-92.9-84.5-185.8c-71.8-143.6-84.5-187.9-84.5-306.2v-137.2L1823.8-4336c-333.6-166.8-377.9-206.9-350.5-314.6c16.9-71.8,92.9-139.3,154.1-139.3c27.4,0,192.1,71.8,365.3,158.4l316.7,158.4l147.8-73.9c80.2-40.1,168.9-73.9,196.4-73.9c61.2,0,137.2,67.6,154.1,139.4c23.2,90.8-23.2,149.9-181.6,230.2l-147.8,73.9v95c0,67.6,25.3,143.6,90.8,276.6l88.7,181.6l73.9-12.7c259.7-44.3,589.1-57,840.4-35.9c147.8,12.7,301.9,29.6,342.1,35.9l73.9,12.7l90.8-181.6c63.3-133,88.7-209,88.7-276.6v-95l-147.8-73.9c-80.2-40.1-156.3-92.9-171-118.2c-31.7-61.3-6.3-179.5,50.7-219.6c67.6-48.6,126.7-40.1,289.3,42.2l147.8,73.9l323.1-160.5c251.3-126.7,335.7-160.5,380.1-147.8c67.6,16.9,116.1,63.3,133,130.9c27.5,107.7-16.9,147.8-350.5,314.6l-316.7,158.4v137.2c0,118.2-12.7,162.6-84.5,306.2c-46.5,92.9-84.5,175.3-84.5,183.7c0,10.5,50.7,35.9,111.9,57c344.2,120.3,703.1,346.3,967,603.9c270.3,268.2,451.9,559.5,549,888.9l46.4,160.5l86.6-16.9c48.6-10.6,141.5-16.9,209-19c101.3,0,130.9,8.5,173.1,52.8c52.8,50.7,52.8,57,52.8,394.9c0,517.3-46.4,682-306.2,1121.2C6040.4,3,5905.3,159.3,5645.6,351.4c-105.6,78.1-190,145.7-190,152c0,6.3,76,90.8,166.8,185.8c183.7,192.1,272.4,329.4,344.2,538.4c63.3,183.7,67.6,563.8,8.4,739c-69.7,204.8-166.8,365.3-310.4,508.9L5525.2,2617l-12.7,179.5c-23.2,293.5-130.9,584.9-301.9,808.7c-192.2,253.4-466.7,542.6-622.9,660.9c-198.5,149.9-447.6,274.5-679.9,342.1l-166.8,48.5l-82.3,164.7c-86.6,173.1-141.5,213.3-228,166.8c-61.2-33.8-73.9-109.8-35.9-202.7c40.1-92.9,40.1-95,12.7-95c-10.6,0-52.8,65.4-92.9,145.7C3223.7,5015.7,3156.2,5051.6,3069.6,4965z M3776.9,4291.4c219.6-57,519.4-206.9,658.8-329.4c139.4-122.5,468.7-500.4,565.9-646.1c114-175.2,162.6-350.5,177.4-639.8c12.7-249.2,12.7-251.3,76-295.6c158.3-111.9,304.1-272.4,361-399.1c54.9-118.2,61.3-152,61.3-363.2c0-352.6-31.7-413.8-384.3-772.8c-234.4-240.7-280.8-299.8-280.8-352.6c0-84.5,27.4-111.9,369.5-369.5c301.9-225.9,375.8-304.1,536.3-568c221.7-365.3,276.6-538.4,276.6-874.1V-1532l-57,8.5c-230.1,38-445.5,152-711.6,377.9c-230.1,194.3-306.2,327.3-466.6,812.9c-147.8,443.4-173.1,483.5-291.4,483.5c-71.8,0-162.6-84.5-162.6-152c0-82.3,242.8-783.3,327.3-941.7c42.2-82.4,130.9-206.9,196.4-278.7c143.6-160.5,422.3-386.4,555.3-456.1l99.2-48.6l-29.6-128.8c-156.3-669.4-730.6-1190.9-1541.4-1395.7c-842.5-211.1-1811.6-63.3-2426.1,371.6c-325.2,230.2-622.9,656.7-694.7,994.5c-14.8,63.3-12.7,65.4,107.7,109.8c356.8,130.9,694.7,432.9,872,783.4c76,149.9,337.8,916.4,337.8,990.3c0,67.6-90.8,152-162.6,152c-120.3,0-141.5-38-301.9-515.2c-168.9-508.9-230.1-622.9-445.5-827.7c-206.9-196.4-416-299.8-669.3-335.7l-109.8-14.8v219.6c0,352.6,54.9,517.3,308.3,924.8c145.7,236.5,215.4,308.3,574.3,578.5c304.1,228,346.3,280.8,312.5,388.5c-8.4,21.1-126.7,145.7-266,276.6c-139.4,130.9-278.7,278.7-308.3,331.5c-86.6,145.7-120.3,310.4-107.7,511c16.9,287.2,97.1,416,435,703.1c65.5,57,65.5,57,65.5,266c0,375.8,59.1,563.7,274.5,863.6c314.6,439.2,679.9,692.6,1150.8,802.4C3225.8,4361.1,3557.4,4346.3,3776.9,4291.4z"/><path d="M2478.4,3398.3c-111.9-61.2-225.9-200.6-244.9-301.9c-31.7-171,69.7-354.7,244.9-449.7c177.4-95,394.9-25.4,521.5,168.9C3215.3,3140.7,2820.5,3579.9,2478.4,3398.3z M2721.2,3022.4c0-69.7-4.2-73.9-73.9-73.9c-61.2,0-76,8.4-80.2,48.6c-12.7,84.5,10.6,114,84.5,105.6C2714.9,3096.3,2721.2,3090,2721.2,3022.4z"/><path d="M3998.6,3398.3c-175.2-95-276.6-278.7-244.9-449.7c19-101.3,133-240.7,244.9-301.9c177.4-95,394.8-25.4,521.5,168.9C4735.6,3140.7,4340.7,3579.9,3998.6,3398.3z M4241.5,3022.4c0-69.7-4.2-73.9-73.9-73.9c-61.2,0-76,8.4-80.2,48.6c-12.7,84.5,10.6,114,84.5,105.6C4235.1,3096.3,4241.5,3090,4241.5,3022.4z"/><path d="M2980.9,2325.7c-551.1-278.7-551.1-257.6-31.7-774.9c350.5-350.5,392.7-386.4,458.2-386.4c65.5,0,107.7,35.9,458.2,386.4c403.3,403.3,424.4,432.9,365.3,544.8c-27.4,48.6-760.1,420.2-827.7,418.1C3375.8,2513.6,3185.7,2429.1,2980.9,2325.7z M3601.7,2059.6l192.1-97.1l-192.1-192.1l-194.3-194.2l-194.3,194.2L3021,1962.5l187.9,97.1c103.5,52.8,190,95,194.3,95C3405.3,2156.7,3496.1,2112.4,3601.7,2059.6z"/><path d="M8996.5-1247c-29.6-27.4-92.9-147.8-143.6-270.3c-48.6-122.5-97.1-230.1-107.7-242.8c-10.5-10.5-82.3,12.7-183.7,61.3c-160.5,80.2-219.6,86.6-289.3,40.1c-12.7-10.5-97.1-128.8-185.8-263.9l-162.6-249.2l-152-42.2c-420.2-122.4-378-95-669.4-432.8c-304.1-350.5-253.4-329.4-654.6-274.5c-295.6,40.1-310.4,40.1-369.5-21.1c-80.2-78.1-67.6-147.8,65.4-361.1C6885-4481.7,8035.8-5018,8912-4595.7c211.2,101.3,432.9,331.5,559.6,576.4c196.4,384.3,261.8,705.2,242.8,1190.9c-19,466.6-122.5,850.9-346.3,1307C9211.9-1204.7,9116.9-1135,8996.5-1247z M9266.8-2161.2c109.8-325.2,143.6-559.5,130.9-907.9c-12.7-339.9-44.4-473-168.9-726.3c-200.6-411.7-534.2-614.4-1007.2-614.4c-443.4,0-869.9,209-1283.8,629.2c-141.5,145.7-416,487.8-401.2,500.4c4.2,4.2,90.8-2.1,192.1-14.8c107.7-12.7,202.7-14.8,225.9-4.2c21.1,10.5,164.7,162.6,318.8,335.7c152,175.3,280.8,321,285,325.2c4.2,4.2,124.6,42.2,266.1,84.5c143.6,42.2,274.5,86.6,293.5,97.1c19,12.7,92.9,111.9,166.8,221.7c73.9,109.8,137.2,204.8,139.3,209c4.2,4.2,92.9-31.7,196.4-80.2c270.3-128.8,306.2-111.9,426.5,175.2l69.7,168.9l40.1-95C9178.1-1907.9,9228.8-2045.1,9266.8-2161.2z"/></g></g>
</svg>