<?xml version="1.0" encoding="UTF-8" standalone="no"?>
<!-- Created with Inkscape (http://www.inkscape.org/) -->

<svg
   xmlns:dc="http://purl.org/dc/elements/1.1/"
   xmlns:cc="http://creativecommons.org/ns#"
   xmlns:rdf="http://www.w3.org/1999/02/22-rdf-syntax-ns#"
   xmlns:svg="http://www.w3.org/2000/svg"
   xmlns="http://www.w3.org/2000/svg"
   xmlns:sodipodi="http://sodipodi.sourceforge.net/DTD/sodipodi-0.dtd"
   xmlns:inkscape="http://www.inkscape.org/namespaces/inkscape"
   width="74.678467mm"
   height="35.579224mm"
   viewBox="0 0 74.678467 35.579224"
   version="1.1"
   id="svg5235"
   inkscape:version="0.92.5 (2060ec1f9f, 2020-04-08)"
   sodipodi:docname="chicken-text.svg">
  <defs
     id="defs5229" />
  <sodipodi:namedview
     id="base"
     pagecolor="#ffffff"
     bordercolor="#666666"
     borderopacity="1.0"
     inkscape:pageopacity="0.0"
     inkscape:pageshadow="2"
     inkscape:zoom="0.98994949"
     inkscape:cx="195.3082"
     inkscape:cy="19.606677"
     inkscape:document-units="mm"
     inkscape:current-layer="layer1"
     showgrid="false"
     inkscape:window-width="1920"
     inkscape:window-height="1043"
     inkscape:window-x="1920"
     inkscape:window-y="0"
     inkscape:window-maximized="1"
     fit-margin-top="0"
     fit-margin-left="0"
     fit-margin-right="0"
     fit-margin-bottom="0" />
  <metadata
     id="metadata5232">
    <rdf:RDF>
      <cc:Work
         rdf:about="">
        <dc:format>image/svg+xml</dc:format>
        <dc:type
           rdf:resource="http://purl.org/dc/dcmitype/StillImage" />
        <dc:title></dc:title>
      </cc:Work>
    </rdf:RDF>
  </metadata>
  <g
     inkscape:label="Layer 1"
     inkscape:groupmode="layer"
     id="layer1"
     transform="translate(-33.346305,-77.327174)">
    <g
       aria-label="Automatic
chicken coop
door opener"
       style="font-style:normal;font-variant:normal;font-weight:normal;font-stretch:normal;font-size:10.58333302px;line-height:1.25;font-family:OCR-A;-inkscape-font-specification:OCR-A;text-align:center;letter-spacing:0px;word-spacing:0px;text-anchor:middle;fill:#000000;fill-opacity:1;stroke:none;stroke-width:0.26458332"
       id="text5239">
      <path
         d="m 42.951231,83.972763 1.756999,-5.937622 q 0.103353,-0.325561 0.434082,-0.325561 0.320394,0 0.403076,0.273885 l 1.73116,6.030639 q 0.02067,0.06718 0.02067,0.129191 0,0.180868 -0.124023,0.310059 -0.124024,0.124023 -0.284221,0.124023 -0.341064,0 -0.434082,-0.315226 l -0.3514,-1.178223 h -1.979207 l -0.382405,1.260905 q -0.0155,0.08268 -0.129191,0.160197 -0.113689,0.07235 -0.248047,0.07235 -0.191203,0 -0.315227,-0.129191 -0.124023,-0.129191 -0.124023,-0.315226 0,-0.07751 0.02584,-0.160197 z m 2.180746,-4.25297 -0.744141,2.485636 h 1.462443 z"
         style="line-height:1.25;text-align:center;text-anchor:middle;stroke-width:0.26458332"
         id="path5451" />
      <path
         d="M 51.379657,83.698878 52.8421,82.768702 v -2.744018 q 0,-0.180868 0.124024,-0.310059 0.129191,-0.134359 0.310058,-0.134359 0.180868,0 0.304891,0.134359 0.129191,0.129191 0.129191,0.310059 v 4.118611 q 0,0.1757 -0.129191,0.304891 -0.129191,0.129191 -0.304891,0.129191 -0.1757,0 -0.304891,-0.129191 Q 52.8421,84.318995 52.8421,84.143295 v -0.341064 l -0.754476,0.490926 q -0.444417,0.28422 -0.89917,0.28422 h -0.403076 q -0.532267,0 -0.914673,-0.37207 -0.382405,-0.37207 -0.408243,-0.909505 l -0.124024,-3.271118 q -0.01033,-0.170532 0.118856,-0.299724 0.134359,-0.134358 0.315226,-0.134358 0.1757,0 0.299723,0.129191 0.129191,0.129191 0.134359,0.304891 l 0.113688,3.209106 q 0.0155,0.465088 0.532267,0.465088 z"
         style="line-height:1.25;text-align:center;text-anchor:middle;stroke-width:0.26458332"
         id="path5453" />
      <path
         d="m 58.759051,84.577377 h -0.868164 q -0.537434,0 -0.925008,-0.382405 -0.387573,-0.382406 -0.387573,-0.919841 v -2.816365 h -0.444417 q -0.180868,0 -0.310059,-0.124024 -0.124023,-0.124023 -0.124023,-0.310058 0,-0.180868 0.124023,-0.304891 0.129191,-0.129191 0.310059,-0.129191 h 0.454752 v -1.064535 q 0,-0.180867 0.124024,-0.304891 0.129191,-0.129191 0.310058,-0.129191 0.170533,0 0.299724,0.129191 0.134358,0.129191 0.134358,0.304891 v 1.064535 h 1.746664 q 0.1757,0 0.304891,0.129191 0.129191,0.129191 0.129191,0.304891 0,0.180867 -0.129191,0.310058 -0.129191,0.124024 -0.304891,0.124024 H 57.44647 v 2.816365 q 0,0.1757 0.129191,0.304891 0.134359,0.129191 0.315226,0.129191 h 0.847494 q 0.346232,0 0.45992,-0.37207 0.113688,-0.377238 0.43925,-0.377238 0.191203,0 0.310058,0.129191 0.124024,0.124024 0.124024,0.315226 0,0.392741 -0.372071,0.785482 -0.366902,0.387573 -0.940511,0.387573 z"
         style="line-height:1.25;text-align:center;text-anchor:middle;stroke-width:0.26458332"
         id="path5455" />
      <path
         d="m 66.474343,81.156398 v 1.834513 q 0,0.583944 -0.552938,1.080037 -0.54777,0.496094 -1.131714,0.496094 h -1.018025 q -0.594279,0 -1.136882,-0.501261 -0.542602,-0.506429 -0.542602,-1.07487 v -1.834513 q 0,-0.568441 0.527099,-1.069703 0.532268,-0.506429 1.152385,-0.506429 h 1.018025 q 0.583944,-0.01033 1.131714,0.485759 0.552938,0.496094 0.552938,1.090373 z m -3.503662,0.03617 v 1.756999 q 0,0.237711 0.170532,0.377238 l 0.325562,0.279052 q 0.10852,0.09302 0.304891,0.09302 h 1.00769 q 0.222209,0 0.403076,-0.160197 l 0.26355,-0.232544 q 0.160197,-0.124023 0.160197,-0.346232 v -1.756999 q 0,-0.258382 -0.160197,-0.382405 l -0.304891,-0.242879 q -0.155029,-0.129191 -0.361735,-0.129191 h -0.89917 q -0.294555,0 -0.454752,0.139526 l -0.294556,0.253214 q -0.160197,0.134359 -0.160197,0.3514 z"
         style="line-height:1.25;text-align:center;text-anchor:middle;stroke-width:0.26458332"
         id="path5457" />
      <path
         d="m 68.386371,84.143295 v -4.118611 q 0,-0.180868 0.124023,-0.304891 0.129191,-0.129191 0.310059,-0.129191 0.335896,0 0.423746,0.330729 0.361735,-0.341065 0.806153,-0.341065 0.521932,0 0.857828,0.444418 0.413412,-0.444418 0.909506,-0.444418 0.403076,0 0.697631,0.289388 0.299724,0.284221 0.320394,0.728638 l 0.124024,3.545003 q 0,0.1757 -0.129191,0.304891 -0.129191,0.129191 -0.304891,0.129191 -0.180868,0 -0.310059,-0.129191 -0.129191,-0.129191 -0.134359,-0.304891 l -0.103353,-3.405476 q -0.01033,-0.279053 -0.170532,-0.279053 -0.08785,0 -0.180867,0.07751 l -0.516765,0.434082 v 3.172933 q 0,0.1757 -0.129191,0.299724 -0.124023,0.124023 -0.304891,0.124023 -0.175699,0 -0.304891,-0.124023 -0.129191,-0.129191 -0.129191,-0.310059 v -3.451986 q 0,-0.222208 -0.191202,-0.222208 -0.09302,0 -0.170533,0.06718 l -0.625284,0.5271 v 3.09025 q 0,0.1757 -0.124024,0.304891 -0.124023,0.129191 -0.299723,0.129191 -0.180868,0 -0.315226,-0.129191 -0.129191,-0.129191 -0.129191,-0.304891 z"
         style="line-height:1.25;text-align:center;text-anchor:middle;stroke-width:0.26458332"
         id="path5459" />
      <path
         d="m 76.179176,81.445786 h 1.700154 q 0.139527,0 0.403077,0.06201 l -0.01034,-0.614949 q 0,-0.180868 -0.129191,-0.304891 -0.124023,-0.129191 -0.304891,-0.129191 h -1.648478 q -0.1757,0 -0.304891,-0.129191 -0.129191,-0.129191 -0.129191,-0.304891 0,-0.180868 0.124024,-0.304891 0.129191,-0.129191 0.310058,-0.129191 h 1.648478 q 0.537435,0 0.914673,0.377238 0.382406,0.377238 0.397909,0.925008 l 0.10852,3.250447 q 0,0.180868 -0.129191,0.310059 -0.129191,0.124023 -0.304891,0.124023 -0.186035,0 -0.315226,-0.124023 -0.129191,-0.129191 -0.129191,-0.310059 l -0.733806,0.434082 h -1.46761 q -0.54777,0 -0.930176,-0.382405 -0.382405,-0.382406 -0.382405,-0.930176 v -0.506429 q 0,-0.542603 0.382405,-0.925008 0.387573,-0.387573 0.930176,-0.387573 z m 2.17041,1.689819 -0.02584,-0.366903 Q 78.31858,82.582667 78.194557,82.458644 78.070533,82.33462 77.889666,82.33462 h -1.71049 q -0.180868,0 -0.310059,0.129191 -0.124023,0.124024 -0.124023,0.304891 v 0.485759 q 0,0.1757 0.129191,0.304891 0.129191,0.129191 0.304891,0.129191 h 1.224731 z"
         style="line-height:1.25;text-align:center;text-anchor:middle;stroke-width:0.26458332"
         id="path5461" />
      <path
         d="m 84.32855,84.577377 h -0.868164 q -0.537434,0 -0.925008,-0.382405 -0.387573,-0.382406 -0.387573,-0.919841 v -2.816365 h -0.444417 q -0.180868,0 -0.310059,-0.124024 -0.124023,-0.124023 -0.124023,-0.310058 0,-0.180868 0.124023,-0.304891 0.129191,-0.129191 0.310059,-0.129191 h 0.454752 v -1.064535 q 0,-0.180867 0.124024,-0.304891 0.129191,-0.129191 0.310058,-0.129191 0.170533,0 0.299724,0.129191 0.134358,0.129191 0.134358,0.304891 v 1.064535 h 1.746664 q 0.1757,0 0.304891,0.129191 0.129191,0.129191 0.129191,0.304891 0,0.180867 -0.129191,0.310058 -0.129191,0.124024 -0.304891,0.124024 h -1.756999 v 2.816365 q 0,0.1757 0.129191,0.304891 0.134359,0.129191 0.315226,0.129191 h 0.847494 q 0.346232,0 0.45992,-0.37207 0.113688,-0.377238 0.43925,-0.377238 0.191203,0 0.310058,0.129191 0.124024,0.124024 0.124024,0.315226 0,0.392741 -0.372071,0.785482 -0.366902,0.387573 -0.940511,0.387573 z"
         style="line-height:1.25;text-align:center;text-anchor:middle;stroke-width:0.26458332"
         id="path5463" />
      <path
         d="m 89.408341,77.327174 h 0.454753 q 0.180867,0 0.304891,0.129191 0.129191,0.124024 0.129191,0.304891 v 0.37207 q 0,0.180868 -0.129191,0.315227 -0.124024,0.129191 -0.304891,0.129191 h -0.465088 q -0.186035,0 -0.315226,-0.134359 -0.124024,-0.134359 -0.118856,-0.299723 l 0.01033,-0.382406 q 0,-0.180867 0.124024,-0.304891 0.129191,-0.129191 0.310058,-0.129191 z m 1.767334,7.239868 h -2.645833 q -0.180868,0 -0.310059,-0.124023 -0.124023,-0.129191 -0.124023,-0.310059 0,-0.1757 0.124023,-0.304891 0.129191,-0.129191 0.310059,-0.129191 h 0.888835 v -3.240112 h -0.8785 q -0.180867,0 -0.310058,-0.129191 -0.124024,-0.129191 -0.124024,-0.304891 0,-0.180868 0.124024,-0.310059 0.129191,-0.134359 0.310058,-0.134359 h 1.322917 q 0.180867,0 0.304891,0.134359 0.129191,0.129191 0.129191,0.310059 v 3.674194 h 0.868164 q 0.180867,0 0.310058,0.129191 0.134359,0.124024 0.134359,0.304891 0,0.180868 -0.129191,0.310059 -0.129191,0.124023 -0.304891,0.124023 z"
         style="line-height:1.25;text-align:center;text-anchor:middle;stroke-width:0.26458332"
         id="path5465" />
      <path
         d="m 98.012468,84.577377 h -1.855183 q -0.490927,0 -0.837159,-0.294555 L 94.477801,83.549016 Q 94.074724,83.21312 94.074724,82.639511 v -1.131714 q -0.02067,-0.552937 0.454753,-0.961181 l 0.759644,-0.656291 q 0.366902,-0.299723 0.785481,-0.299723 h 1.948202 q 0.180867,0 0.304891,0.129191 0.129191,0.124023 0.129191,0.304891 0,0.186035 -0.129191,0.310058 -0.124024,0.124024 -0.304891,0.124024 h -1.865519 q -0.1757,0 -0.335897,0.139526 l -0.697632,0.594279 q -0.170532,0.144694 -0.170532,0.387573 v 1.059367 q 0,0.170532 0.134358,0.289388 l 0.764812,0.651123 q 0.144694,0.129191 0.382405,0.129191 h 1.777669 q 0.1757,0 0.304891,0.129191 0.129191,0.124024 0.129191,0.304891 0,0.180868 -0.129191,0.310059 -0.124023,0.124023 -0.304891,0.124023 z"
         style="line-height:1.25;text-align:center;text-anchor:middle;stroke-width:0.26458332"
         id="path5467" />
      <path
         d="m 37.284911,97.806544 h -1.855184 q -0.490926,0 -0.837158,-0.294556 l -0.842326,-0.733805 q -0.403076,-0.335897 -0.403076,-0.909506 v -1.131713 q -0.02067,-0.552938 0.454752,-0.961182 l 0.759644,-0.656291 q 0.366902,-0.299723 0.785481,-0.299723 h 1.948202 q 0.180867,0 0.304891,0.129191 0.129191,0.124024 0.129191,0.304891 0,0.186035 -0.129191,0.310059 -0.124024,0.124023 -0.304891,0.124023 h -1.865519 q -0.1757,0 -0.335897,0.139526 l -0.697632,0.594279 q -0.170532,0.144694 -0.170532,0.387574 v 1.059366 q 0,0.170533 0.134359,0.289388 l 0.764811,0.651123 q 0.144694,0.129192 0.382405,0.129192 h 1.77767 q 0.175699,0 0.304891,0.129191 0.129191,0.124023 0.129191,0.304891 0,0.180867 -0.129191,0.310058 -0.124024,0.124024 -0.304891,0.124024 z"
         style="line-height:1.25;text-align:center;text-anchor:middle;stroke-width:0.26458332"
         id="path5469" />
      <path
         d="m 39.71887,97.372462 v -5.999634 q 0,-0.1757 0.124024,-0.299723 0.129191,-0.124024 0.310059,-0.124024 0.180867,0 0.30489,0.129191 0.129192,0.124024 0.129192,0.304891 v 2.191081 l 0.697631,-0.454753 q 0.475424,-0.299723 0.847494,-0.299723 h 0.537435 q 0.532267,0 0.914673,0.382406 0.382405,0.377238 0.397908,0.91984 l 0.108521,3.250448 q 0.0052,0.180867 -0.124024,0.310058 -0.129191,0.124024 -0.310058,0.124024 -0.180868,0 -0.304891,-0.129191 -0.124024,-0.134359 -0.129192,-0.304891 l -0.10852,-3.260783 q -0.0052,-0.1757 -0.134359,-0.304891 -0.129191,-0.129191 -0.310058,-0.129191 h -0.485759 q -0.165364,0 -0.361735,0.129191 l -1.235066,0.806152 v 2.759522 q 0,0.180867 -0.129192,0.310058 -0.124023,0.124024 -0.30489,0.124024 -0.180868,0 -0.310059,-0.124024 -0.124024,-0.129191 -0.124024,-0.310058 z"
         style="line-height:1.25;text-align:center;text-anchor:middle;stroke-width:0.26458332"
         id="path5471" />
      <path
         d="m 47.857908,90.55634 h 0.454753 q 0.180867,0 0.304891,0.129191 0.129191,0.124024 0.129191,0.304891 v 0.372071 q 0,0.180867 -0.129191,0.315226 -0.124024,0.129191 -0.304891,0.129191 h -0.465088 q -0.186035,0 -0.315226,-0.134359 -0.124024,-0.134358 -0.118856,-0.299723 l 0.01033,-0.382406 q 0,-0.180867 0.124024,-0.304891 0.129191,-0.129191 0.310058,-0.129191 z m 1.767334,7.239868 h -2.645833 q -0.180867,0 -0.310059,-0.124023 -0.124023,-0.129191 -0.124023,-0.310059 0,-0.1757 0.124023,-0.304891 0.129192,-0.129191 0.310059,-0.129191 h 0.888835 v -3.240112 h -0.8785 q -0.180867,0 -0.310058,-0.129191 -0.124024,-0.129191 -0.124024,-0.304891 0,-0.180867 0.124024,-0.310059 0.129191,-0.134358 0.310058,-0.134358 h 1.322917 q 0.180867,0 0.304891,0.134358 0.129191,0.129192 0.129191,0.310059 v 3.674194 h 0.868164 q 0.180868,0 0.310059,0.129191 0.134358,0.124024 0.134358,0.304891 0,0.180868 -0.129191,0.310059 -0.129191,0.124023 -0.304891,0.124023 z"
         style="line-height:1.25;text-align:center;text-anchor:middle;stroke-width:0.26458332"
         id="path5473" />
      <path
         d="m 56.462035,97.806544 h -1.855184 q -0.490926,0 -0.837158,-0.294556 l -0.842326,-0.733805 q -0.403076,-0.335897 -0.403076,-0.909506 v -1.131713 q -0.02067,-0.552938 0.454752,-0.961182 l 0.759644,-0.656291 q 0.366902,-0.299723 0.785481,-0.299723 h 1.948202 q 0.180867,0 0.304891,0.129191 0.129191,0.124024 0.129191,0.304891 0,0.186035 -0.129191,0.310059 -0.124024,0.124023 -0.304891,0.124023 h -1.865519 q -0.1757,0 -0.335897,0.139526 l -0.697632,0.594279 q -0.170532,0.144694 -0.170532,0.387574 v 1.059366 q 0,0.170533 0.134359,0.289388 l 0.764811,0.651123 q 0.144694,0.129192 0.382405,0.129192 h 1.77767 q 0.175699,0 0.304891,0.129191 0.129191,0.124023 0.129191,0.304891 0,0.180867 -0.129191,0.310058 -0.124024,0.124024 -0.304891,0.124024 z"
         style="line-height:1.25;text-align:center;text-anchor:middle;stroke-width:0.26458332"
         id="path5475" />
      <path
         d="m 58.906329,97.372462 v -5.989299 q 0,-0.186035 0.124024,-0.315226 0.129191,-0.129191 0.310058,-0.129191 0.180868,0 0.304891,0.129191 0.129191,0.129191 0.129191,0.315226 v 3.545003 l 2.335775,-1.989542 Q 62.26013,92.8146 62.43583,92.8146 q 0.186035,0 0.310058,0.134359 0.124024,0.129191 0.124024,0.310059 0,0.191202 -0.134359,0.304891 l -1.819011,1.545125 2.242758,1.968872 q 0.134358,0.10852 0.134358,0.28422 0,0.170533 -0.124023,0.310059 -0.124024,0.134359 -0.304891,0.134359 -0.180868,0 -0.320394,-0.118856 l -2.315104,-2.010213 -0.454753,0.382405 v 1.312582 q 0,0.180867 -0.129191,0.310058 -0.124023,0.124024 -0.304891,0.124024 -0.180867,0 -0.310058,-0.124024 -0.124024,-0.129191 -0.124024,-0.310058 z"
         style="line-height:1.25;text-align:center;text-anchor:middle;stroke-width:0.26458332"
         id="path5477" />
      <path
         d="m 69.670529,94.452743 v 1.049032 q 0,0.1757 -0.129191,0.304891 -0.129191,0.129191 -0.304891,0.129191 h -3.06958 v 0.253214 q 0,0.222209 0.191203,0.377238 l 0.253215,0.211874 q 0.206705,0.160197 0.392741,0.160197 h 2.232421 q 0.1757,0 0.304891,0.129191 0.129191,0.124023 0.129191,0.304891 0,0.175699 -0.134358,0.304891 -0.129191,0.129191 -0.299724,0.129191 h -2.289265 q -0.227377,0 -0.480591,-0.09302 -0.248047,-0.09819 -0.366903,-0.201538 l -0.387573,-0.341065 q -0.180868,-0.144694 -0.304891,-0.403076 -0.118856,-0.258382 -0.118856,-0.475423 v -1.989542 q 0,-0.170533 0.129191,-0.459921 0.134359,-0.289388 0.335897,-0.449585 l 0.361735,-0.28422 q 0.356567,-0.289388 0.790649,-0.289388 h 1.219564 q 0.45992,0 0.868164,0.382406 l 0.325562,0.310058 q 0.351399,0.315226 0.351399,0.940511 z m -3.493326,-0.06718 v 0.671793 h 2.635498 v -0.604614 q 0,-0.242879 -0.149862,-0.37207 l -0.253215,-0.222209 q -0.19637,-0.160197 -0.351399,-0.160197 h -1.090373 q -0.201538,0 -0.366903,0.139527 l -0.253214,0.211873 q -0.170532,0.129191 -0.170532,0.335897 z"
         style="line-height:1.25;text-align:center;text-anchor:middle;stroke-width:0.26458332"
         id="path5479" />
      <path
         d="m 73.742634,93.827458 -1.183391,0.769979 v 2.775025 q 0,0.175699 -0.129191,0.304891 -0.129191,0.129191 -0.304891,0.129191 -0.1757,0 -0.304891,-0.129191 -0.129191,-0.129192 -0.129191,-0.304891 V 93.25385 q 0,-0.180867 0.124024,-0.310059 0.129191,-0.134358 0.310058,-0.134358 0.1757,0 0.304891,0.134358 0.129191,0.129192 0.129191,0.310059 v 0.289388 l 0.79065,-0.480591 q 0.397908,-0.253214 0.89917,-0.253214 h 0.403076 q 0.516764,0 0.894002,0.366902 0.377238,0.366903 0.397909,0.904338 l 0.118855,3.291789 q 0.0052,0.175699 -0.124023,0.304891 -0.129191,0.129191 -0.310059,0.129191 -0.170532,0 -0.299723,-0.113689 Q 75.199909,97.574 75.194741,97.372462 L 75.06555,94.132349 q -0.0155,-0.454752 -0.475423,-0.454752 H 74.16638 q -0.19637,0 -0.423746,0.149861 z"
         style="line-height:1.25;text-align:center;text-anchor:middle;stroke-width:0.26458332"
         id="path5481" />
      <path
         d="m 88.423907,97.806544 h -1.855184 q -0.490926,0 -0.837158,-0.294556 l -0.842326,-0.733805 q -0.403076,-0.335897 -0.403076,-0.909506 v -1.131713 q -0.02067,-0.552938 0.454752,-0.961182 l 0.759644,-0.656291 q 0.366902,-0.299723 0.785482,-0.299723 h 1.948201 q 0.180867,0 0.304891,0.129191 0.129191,0.124024 0.129191,0.304891 0,0.186035 -0.129191,0.310059 -0.124024,0.124023 -0.304891,0.124023 h -1.865519 q -0.1757,0 -0.335897,0.139526 l -0.697632,0.594279 q -0.170532,0.144694 -0.170532,0.387574 v 1.059366 q 0,0.170533 0.134359,0.289388 l 0.764811,0.651123 q 0.144694,0.129192 0.382405,0.129192 h 1.77767 q 0.1757,0 0.304891,0.129191 0.129191,0.124023 0.129191,0.304891 0,0.180867 -0.129191,0.310058 -0.124024,0.124024 -0.304891,0.124024 z"
         style="line-height:1.25;text-align:center;text-anchor:middle;stroke-width:0.26458332"
         id="path5483" />
      <path
         d="m 95.240029,94.385564 v 1.834513 q 0,0.583944 -0.552937,1.080038 -0.547771,0.496093 -1.131714,0.496093 h -1.018026 q -0.594279,0 -1.136881,-0.501261 -0.542603,-0.506429 -0.542603,-1.07487 v -1.834513 q 0,-0.568441 0.5271,-1.069702 0.532267,-0.506429 1.152384,-0.506429 h 1.018026 q 0.583943,-0.01034 1.131714,0.485758 0.552937,0.496094 0.552937,1.090373 z m -3.503662,0.03617 v 1.756999 q 0,0.237712 0.170533,0.377238 l 0.325561,0.279053 q 0.108521,0.09302 0.304891,0.09302 h 1.00769 q 0.222209,0 0.403077,-0.160197 l 0.263549,-0.232544 q 0.160197,-0.124023 0.160197,-0.346232 v -1.756998 q 0,-0.258382 -0.160197,-0.382406 l -0.304891,-0.242879 q -0.155029,-0.129191 -0.361735,-0.129191 h -0.899169 q -0.294556,0 -0.454753,0.139526 l -0.294556,0.253215 q -0.160197,0.134358 -0.160197,0.351399 z"
         style="line-height:1.25;text-align:center;text-anchor:middle;stroke-width:0.26458332"
         id="path5485" />
      <path
         d="m 101.6324,94.385564 v 1.834513 q 0,0.583944 -0.55294,1.080038 -0.54777,0.496093 -1.13171,0.496093 h -1.018026 q -0.594279,0 -1.136881,-0.501261 -0.542603,-0.506429 -0.542603,-1.07487 v -1.834513 q 0,-0.568441 0.5271,-1.069702 0.532267,-0.506429 1.152384,-0.506429 h 1.018026 q 0.58394,-0.01034 1.13171,0.485758 0.55294,0.496094 0.55294,1.090373 z m -3.503661,0.03617 v 1.756999 q 0,0.237712 0.170533,0.377238 l 0.325561,0.279053 q 0.108521,0.09302 0.304891,0.09302 h 1.007691 q 0.222205,0 0.403075,-0.160197 l 0.26355,-0.232544 q 0.1602,-0.124023 0.1602,-0.346232 v -1.756998 q 0,-0.258382 -0.1602,-0.382406 l -0.30489,-0.242879 q -0.15503,-0.129191 -0.361735,-0.129191 h -0.89917 q -0.294556,0 -0.454753,0.139526 l -0.294556,0.253215 q -0.160197,0.134358 -0.160197,0.351399 z"
         style="line-height:1.25;text-align:center;text-anchor:middle;stroke-width:0.26458332"
         id="path5487" />
      <path
         d="m 104.53145,97.31045 v 1.922363 q 0,0.186035 -0.12919,0.315226 -0.12403,0.129191 -0.3049,0.129191 -0.18086,0 -0.31522,-0.129191 -0.12919,-0.129191 -0.12919,-0.315226 v -6.190836 q 0,-0.1757 0.12919,-0.304891 0.12919,-0.129191 0.31522,-0.129191 0.1757,0 0.3049,0.129191 0.12919,0.129191 0.12919,0.304891 v 0.279052 q 0.63045,-0.702799 1.2454,-0.702799 h 0.20154 q 0.45992,0 0.84749,0.341064 l 0.72347,0.625285 q 0.47542,0.413412 0.47542,1.049032 v 1.353922 q 0,0.640788 -0.51159,1.080038 l -0.70797,0.609782 q -0.3514,0.320393 -0.88883,0.320393 h -0.19121 q -0.50643,0 -0.85783,-0.351399 z m 1.22473,-0.191203 h 0.22221 q 0.16019,0 0.34106,-0.160197 l 0.67696,-0.594279 q 0.17053,-0.134359 0.17053,-0.366902 v -1.400432 q 0,-0.206705 -0.1912,-0.366902 L 106.2471,93.60525 q -0.12402,-0.108521 -0.26871,-0.108521 h -0.25322 q -0.14469,0 -0.37724,0.237712 l -0.64595,0.640788 q -0.17053,0.170532 -0.17053,0.382405 v 1.111043 q 0,0.201539 0.1912,0.392741 l 0.62528,0.625285 q 0.23255,0.232544 0.40825,0.232544 z"
         style="line-height:1.25;text-align:center;text-anchor:middle;stroke-width:0.26458332"
         id="path5489" />
      <path
         d="m 40.026345,106.65355 v -2.05156 q 0,-0.18086 0.124024,-0.30489 0.124023,-0.12919 0.299723,-0.12919 0.180867,0 0.310059,0.12919 0.134358,0.12403 0.134358,0.30489 v 5.99964 q 0,0.18087 -0.129191,0.31006 -0.129191,0.12402 -0.304891,0.12402 -0.186035,0 -0.310058,-0.12402 -0.124024,-0.12919 -0.124024,-0.31006 v -0.1912 q -0.63562,0.62528 -1.188558,0.62528 h -0.738973 q -0.444417,0 -0.888834,-0.38241 l -0.361735,-0.30489 q -0.124024,-0.11885 -0.237712,-0.39791 -0.10852,-0.27905 -0.10852,-0.52193 v -1.76733 q 0,-0.29456 0.124023,-0.56844 0.124024,-0.27905 0.289388,-0.41858 l 0.356567,-0.30489 q 0.382406,-0.33073 0.89917,-0.33073 h 0.625285 q 0.511597,0 0.930176,0.36173 z m -1.260905,0.26355 h -0.604614 q -0.191203,0 -0.346232,0.13952 l -0.279053,0.24288 q -0.144694,0.12919 -0.144694,0.33073 v 1.83968 q 0,0.18087 0.170532,0.32557 l 0.284221,0.24287 q 0.134359,0.11886 0.28422,0.11886 h 0.707967 q 0.139527,0 0.330729,-0.1602 l 0.687297,-0.56844 q 0.170532,-0.14986 0.170532,-0.37207 v -0.94051 q 0,-0.31522 -0.180867,-0.46509 l -0.707967,-0.60461 Q 38.997984,106.9171 38.76544,106.9171 Z"
         style="line-height:1.25;text-align:center;text-anchor:middle;stroke-width:0.26458332"
         id="path5491" />
      <path
         d="m 47.297219,107.61473 v 1.83451 q 0,0.58395 -0.552938,1.08004 -0.54777,0.49609 -1.131714,0.49609 h -1.018025 q -0.594279,0 -1.136882,-0.50126 -0.542602,-0.50643 -0.542602,-1.07487 v -1.83451 q 0,-0.56844 0.527099,-1.0697 0.532268,-0.50643 1.152385,-0.50643 h 1.018025 q 0.583944,-0.0103 1.131714,0.48576 0.552938,0.49609 0.552938,1.09037 z m -3.503662,0.0362 v 1.757 q 0,0.23771 0.170532,0.37724 l 0.325562,0.27905 q 0.10852,0.093 0.304891,0.093 h 1.00769 q 0.222209,0 0.403076,-0.1602 l 0.26355,-0.23254 q 0.160197,-0.12402 0.160197,-0.34623 v -1.757 q 0,-0.25838 -0.160197,-0.38241 l -0.304891,-0.24288 q -0.155029,-0.12919 -0.361735,-0.12919 h -0.89917 q -0.294555,0 -0.454752,0.13953 l -0.294556,0.25321 q -0.160197,0.13436 -0.160197,0.3514 z"
         style="line-height:1.25;text-align:center;text-anchor:middle;stroke-width:0.26458332"
         id="path5493" />
      <path
         d="m 53.689594,107.61473 v 1.83451 q 0,0.58395 -0.552938,1.08004 -0.54777,0.49609 -1.131714,0.49609 h -1.018026 q -0.594279,0 -1.136881,-0.50126 -0.542603,-0.50643 -0.542603,-1.07487 v -1.83451 q 0,-0.56844 0.5271,-1.0697 0.532267,-0.50643 1.152384,-0.50643 h 1.018026 q 0.583944,-0.0103 1.131714,0.48576 0.552938,0.49609 0.552938,1.09037 z m -3.503662,0.0362 v 1.757 q 0,0.23771 0.170532,0.37724 l 0.325561,0.27905 q 0.108521,0.093 0.304891,0.093 h 1.007691 q 0.222208,0 0.403076,-0.1602 l 0.26355,-0.23254 q 0.160197,-0.12402 0.160197,-0.34623 v -1.757 q 0,-0.25838 -0.160197,-0.38241 l -0.304891,-0.24288 q -0.15503,-0.12919 -0.361735,-0.12919 h -0.89917 q -0.294556,0 -0.454753,0.13953 l -0.294555,0.25321 q -0.160197,0.13436 -0.160197,0.3514 z"
         style="line-height:1.25;text-align:center;text-anchor:middle;stroke-width:0.26458332"
         id="path5495" />
      <path
         d="m 55.710143,110.60163 v -4.11861 q 0,-0.18087 0.124023,-0.31006 0.129191,-0.13436 0.310059,-0.13436 0.180867,0 0.30489,0.12919 0.129192,0.12919 0.129192,0.31523 v 0.5426 l 0.707967,-0.60462 q 0.439249,-0.37207 0.857828,-0.37207 h 0.635621 q 0.537434,0 0.91984,0.38241 0.382406,0.38241 0.382406,0.91984 v 0.23254 q 0,0.18604 -0.129192,0.31523 -0.124023,0.12919 -0.30489,0.12919 -0.180868,0 -0.310059,-0.12402 -0.124023,-0.12919 -0.124023,-0.31006 v -0.24288 q 0,-0.18087 -0.129192,-0.30489 -0.124023,-0.12919 -0.30489,-0.12919 h -0.563274 q -0.180867,0 -0.403076,0.1912 l -1.235066,1.0697 v 2.42363 q 0,0.18087 -0.129192,0.31006 -0.129191,0.12402 -0.30489,0.12402 -0.180868,0 -0.310059,-0.12402 -0.124023,-0.12919 -0.124023,-0.31006 z"
         style="line-height:1.25;text-align:center;text-anchor:middle;stroke-width:0.26458332"
         id="path5497" />
      <path
         d="m 72.866717,107.61473 v 1.83451 q 0,0.58395 -0.552938,1.08004 -0.54777,0.49609 -1.131714,0.49609 h -1.018026 q -0.594279,0 -1.136881,-0.50126 -0.542603,-0.50643 -0.542603,-1.07487 v -1.83451 q 0,-0.56844 0.5271,-1.0697 0.532267,-0.50643 1.152384,-0.50643 h 1.018026 q 0.583944,-0.0103 1.131714,0.48576 0.552938,0.49609 0.552938,1.09037 z m -3.503662,0.0362 v 1.757 q 0,0.23771 0.170532,0.37724 l 0.325561,0.27905 q 0.108521,0.093 0.304891,0.093 h 1.007691 q 0.222208,0 0.403076,-0.1602 l 0.26355,-0.23254 q 0.160197,-0.12402 0.160197,-0.34623 v -1.757 q 0,-0.25838 -0.160197,-0.38241 l -0.304891,-0.24288 q -0.15503,-0.12919 -0.361735,-0.12919 h -0.89917 q -0.294556,0 -0.454753,0.13953 l -0.294555,0.25321 q -0.160197,0.13436 -0.160197,0.3514 z"
         style="line-height:1.25;text-align:center;text-anchor:middle;stroke-width:0.26458332"
         id="path5499" />
      <path
         d="m 75.765766,110.53962 v 1.92236 q 0,0.18603 -0.129191,0.31523 -0.124024,0.12919 -0.304891,0.12919 -0.180868,0 -0.315226,-0.12919 -0.129191,-0.1292 -0.129191,-0.31523 v -6.19084 q 0,-0.1757 0.129191,-0.30489 0.129191,-0.12919 0.315226,-0.12919 0.1757,0 0.304891,0.12919 0.129191,0.12919 0.129191,0.30489 v 0.27906 q 0.630452,-0.7028 1.245402,-0.7028 h 0.201538 q 0.45992,0 0.847493,0.34106 l 0.72347,0.62529 q 0.475424,0.41341 0.475424,1.04903 v 1.35392 q 0,0.64079 -0.511597,1.08004 l -0.707967,0.60978 q -0.3514,0.32039 -0.888835,0.32039 h -0.191203 q -0.506429,0 -0.857828,-0.3514 z m 1.224731,-0.19121 h 0.222209 q 0.160197,0 0.341064,-0.16019 l 0.676962,-0.59428 q 0.170532,-0.13436 0.170532,-0.36691 v -1.40043 q 0,-0.2067 -0.191203,-0.3669 l -0.728638,-0.62528 Q 77.3574,106.7259 77.212706,106.7259 h -0.253215 q -0.144694,0 -0.377238,0.23771 l -0.645955,0.64078 q -0.170532,0.17054 -0.170532,0.38241 v 1.11104 q 0,0.20154 0.191203,0.39274 l 0.625284,0.62529 q 0.232544,0.23254 0.408244,0.23254 z"
         style="line-height:1.25;text-align:center;text-anchor:middle;stroke-width:0.26458332"
         id="path5501" />
      <path
         d="m 85.651465,107.68191 v 1.04903 q 0,0.1757 -0.129191,0.30489 -0.129191,0.12919 -0.304891,0.12919 h -3.06958 v 0.25322 q 0,0.22221 0.191203,0.37724 l 0.253214,0.21187 q 0.206706,0.1602 0.392741,0.1602 h 2.232422 q 0.1757,0 0.304891,0.12919 0.129191,0.12402 0.129191,0.30489 0,0.1757 -0.134359,0.30489 -0.129191,0.12919 -0.299723,0.12919 h -2.289266 q -0.227376,0 -0.480591,-0.093 -0.248047,-0.0982 -0.366903,-0.20154 l -0.387573,-0.34106 q -0.180867,-0.14469 -0.304891,-0.40308 -0.118856,-0.25838 -0.118856,-0.47542 v -1.98954 q 0,-0.17053 0.129191,-0.45992 0.134359,-0.28939 0.335897,-0.44959 l 0.361735,-0.28422 q 0.356568,-0.28939 0.79065,-0.28939 h 1.219563 q 0.459921,0 0.868164,0.38241 l 0.325562,0.31006 q 0.3514,0.31522 0.3514,0.94051 z m -3.493327,-0.0672 v 0.67179 h 2.635498 v -0.60461 q 0,-0.24288 -0.149862,-0.37207 l -0.253214,-0.22221 q -0.196371,-0.1602 -0.3514,-0.1602 h -1.090373 q -0.201538,0 -0.366902,0.13953 l -0.253215,0.21187 q -0.170532,0.12919 -0.170532,0.3359 z"
         style="line-height:1.25;text-align:center;text-anchor:middle;stroke-width:0.26458332"
         id="path5503" />
      <path
         d="m 89.723569,107.05662 -1.18339,0.76998 v 2.77503 q 0,0.1757 -0.129191,0.30489 -0.129191,0.12919 -0.304891,0.12919 -0.1757,0 -0.304891,-0.12919 -0.129191,-0.12919 -0.129191,-0.30489 v -4.11861 q 0,-0.18087 0.124023,-0.31006 0.129191,-0.13436 0.310059,-0.13436 0.1757,0 0.304891,0.13436 0.129191,0.12919 0.129191,0.31006 v 0.28938 l 0.790649,-0.48059 q 0.397909,-0.25321 0.89917,-0.25321 h 0.403076 q 0.516764,0 0.894002,0.3669 0.377238,0.3669 0.397909,0.90434 l 0.118856,3.29179 q 0.0052,0.1757 -0.124024,0.30489 -0.129191,0.12919 -0.310058,0.12919 -0.170533,0 -0.299724,-0.11369 -0.129191,-0.11885 -0.134358,-0.32039 l -0.129191,-3.24011 q -0.0155,-0.45476 -0.475424,-0.45476 h -0.423746 q -0.196371,0 -0.423747,0.14986 z"
         style="line-height:1.25;text-align:center;text-anchor:middle;stroke-width:0.26458332"
         id="path5505" />
      <path
         d="m 98.436217,107.68191 v 1.04903 q 0,0.1757 -0.129191,0.30489 -0.129192,0.12919 -0.304891,0.12919 h -3.06958 v 0.25322 q 0,0.22221 0.191202,0.37724 l 0.253215,0.21187 q 0.206706,0.1602 0.392741,0.1602 h 2.232422 q 0.175699,0 0.304891,0.12919 0.129191,0.12402 0.129191,0.30489 0,0.1757 -0.134359,0.30489 -0.129191,0.12919 -0.299723,0.12919 h -2.289266 q -0.227377,0 -0.480591,-0.093 -0.248047,-0.0982 -0.366903,-0.20154 l -0.387573,-0.34106 q -0.180867,-0.14469 -0.304891,-0.40308 -0.118856,-0.25838 -0.118856,-0.47542 v -1.98954 q 0,-0.17053 0.129191,-0.45992 0.134359,-0.28939 0.335897,-0.44959 l 0.361735,-0.28422 q 0.356568,-0.28939 0.79065,-0.28939 h 1.219563 q 0.459921,0 0.868164,0.38241 l 0.325562,0.31006 q 0.3514,0.31522 0.3514,0.94051 z m -3.493327,-0.0672 v 0.67179 h 2.635498 v -0.60461 q 0,-0.24288 -0.149862,-0.37207 l -0.253214,-0.22221 q -0.196371,-0.1602 -0.3514,-0.1602 h -1.090373 q -0.201538,0 -0.366902,0.13953 l -0.253215,0.21187 q -0.170532,0.12919 -0.170532,0.3359 z"
         style="line-height:1.25;text-align:center;text-anchor:middle;stroke-width:0.26458332"
         id="path5507" />
      <path
         d="m 100.45676,110.60163 v -4.11861 q 0,-0.18087 0.12403,-0.31006 0.12919,-0.13436 0.31005,-0.13436 0.18087,0 0.3049,0.12919 0.12919,0.12919 0.12919,0.31523 v 0.5426 l 0.70796,-0.60462 q 0.43925,-0.37207 0.85783,-0.37207 h 0.63562 q 0.53744,0 0.91984,0.38241 0.38241,0.38241 0.38241,0.91984 v 0.23254 q 0,0.18604 -0.12919,0.31523 -0.12403,0.12919 -0.30489,0.12919 -0.18087,0 -0.31006,-0.12402 -0.12403,-0.12919 -0.12403,-0.31006 v -0.24288 q 0,-0.18087 -0.12919,-0.30489 -0.12402,-0.12919 -0.30489,-0.12919 h -0.56327 q -0.18087,0 -0.40308,0.1912 l -1.23506,1.0697 v 2.42363 q 0,0.18087 -0.12919,0.31006 -0.1292,0.12402 -0.3049,0.12402 -0.18086,0 -0.31005,-0.12402 -0.12403,-0.12919 -0.12403,-0.31006 z"
         style="line-height:1.25;text-align:center;text-anchor:middle;stroke-width:0.26458332"
         id="path5509" />
    </g>
  </g>
</svg>
