<?xml version="1.0" encoding="UTF-8" standalone="no"?>
<!-- Created with Inkscape (http://www.inkscape.org/) -->

<svg
   xmlns:dc="http://purl.org/dc/elements/1.1/"
   xmlns:cc="http://creativecommons.org/ns#"
   xmlns:rdf="http://www.w3.org/1999/02/22-rdf-syntax-ns#"
   xmlns:svg="http://www.w3.org/2000/svg"
   xmlns="http://www.w3.org/2000/svg"
   xmlns:sodipodi="http://sodipodi.sourceforge.net/DTD/sodipodi-0.dtd"
   xmlns:inkscape="http://www.inkscape.org/namespaces/inkscape"
   width="378.96484"
   height="137.53981"
   viewBox="0 0 100.26778 36.390743"
   version="1.1"
   id="svg8"
   inkscape:version="0.92.5 (2060ec1f9f, 2020-04-08)"
   sodipodi:docname="thereisnoplacelike127.0.0.1.svg">
  <defs
     id="defs2" />
  <sodipodi:namedview
     id="base"
     pagecolor="#ffffff"
     bordercolor="#666666"
     borderopacity="1.0"
     inkscape:pageopacity="0.0"
     inkscape:pageshadow="2"
     inkscape:zoom="0.7"
     inkscape:cx="111.6007"
     inkscape:cy="61.348547"
     inkscape:document-units="mm"
     inkscape:current-layer="text12"
     showgrid="false"
     fit-margin-top="0"
     fit-margin-left="0"
     fit-margin-right="0"
     fit-margin-bottom="0"
     inkscape:window-width="1920"
     inkscape:window-height="1043"
     inkscape:window-x="1920"
     inkscape:window-y="0"
     inkscape:window-maximized="1"
     units="px" />
  <metadata
     id="metadata5">
    <rdf:RDF>
      <cc:Work
         rdf:about="">
        <dc:format>image/svg+xml</dc:format>
        <dc:type
           rdf:resource="http://purl.org/dc/dcmitype/StillImage" />
        <dc:title></dc:title>
      </cc:Work>
    </rdf:RDF>
  </metadata>
  <g
     inkscape:label="Layer 1"
     inkscape:groupmode="layer"
     id="layer1"
     transform="translate(-148.77239,-119.28695)">
    <g
       aria-label="There's no place like 127.0.0.1"
       style="font-style:normal;font-variant:normal;font-weight:normal;font-stretch:normal;font-size:10.58333302px;line-height:1.25;font-family:OCR-A;-inkscape-font-specification:OCR-A;letter-spacing:0px;word-spacing:0px;fill:#000000;fill-opacity:1;stroke:none;stroke-width:0.26458332"
       id="text12">
      <g
         id="g49"
         transform="translate(47.927311)">
        <path
           id="path14"
           style="stroke-width:0.26458332"
           d="m 100.84508,120.47034 v -1.17306 h 4.38216 v 1.18339 q 0,0.18087 -0.12919,0.31006 -0.12919,0.12403 -0.30489,0.12403 -0.18087,0 -0.31523,-0.12919 -0.12919,-0.1292 -0.12919,-0.3049 v -0.31522 h -0.8785 v 5.55521 q 0,0.18087 -0.12919,0.31006 -0.12919,0.12403 -0.30489,0.12403 -0.18603,0 -0.31523,-0.12403 -0.12919,-0.12919 -0.12919,-0.31006 v -5.55521 h -0.8785 v 0.30489 q 0,0.18087 -0.12919,0.31006 -0.12402,0.12402 -0.30489,0.12402 -0.18087,0 -0.31006,-0.12402 -0.12402,-0.12919 -0.12402,-0.31006 z"
           inkscape:connector-curvature="0" />
        <path
           id="path16"
           style="stroke-width:0.26458332"
           d="m 107.23745,125.72066 v -5.99963 q 0,-0.1757 0.12403,-0.29972 0.12919,-0.12403 0.31006,-0.12403 0.18086,0 0.30489,0.1292 0.12919,0.12402 0.12919,0.30489 v 2.19108 l 0.69763,-0.45476 q 0.47542,-0.29972 0.84749,-0.29972 h 0.53744 q 0.53227,0 0.91467,0.38241 0.38241,0.37723 0.39791,0.91984 l 0.10852,3.25044 q 0.005,0.18087 -0.12402,0.31006 -0.12919,0.12403 -0.31006,0.12403 -0.18087,0 -0.30489,-0.12919 -0.12403,-0.13436 -0.12919,-0.3049 l -0.10852,-3.26078 q -0.005,-0.1757 -0.13436,-0.30489 -0.12919,-0.12919 -0.31006,-0.12919 h -0.48576 q -0.16536,0 -0.36173,0.12919 l -1.23507,0.80615 v 2.75952 q 0,0.18087 -0.12919,0.31006 -0.12403,0.12403 -0.30489,0.12403 -0.18087,0 -0.31006,-0.12403 -0.12403,-0.12919 -0.12403,-0.31006 z"
           inkscape:connector-curvature="0" />
        <path
           id="path18"
           style="stroke-width:0.26458332"
           d="m 118.01199,122.80095 v 1.04903 q 0,0.1757 -0.12919,0.30489 -0.12919,0.12919 -0.30489,0.12919 h -3.06958 v 0.25321 q 0,0.22221 0.1912,0.37724 l 0.25322,0.21188 q 0.2067,0.16019 0.39274,0.16019 h 2.23242 q 0.1757,0 0.30489,0.12919 0.12919,0.12403 0.12919,0.30489 0,0.1757 -0.13436,0.3049 -0.12919,0.12919 -0.29972,0.12919 h -2.28927 q -0.22737,0 -0.48059,-0.093 -0.24805,-0.0982 -0.3669,-0.20154 l -0.38757,-0.34106 q -0.18087,-0.1447 -0.3049,-0.40308 -0.11885,-0.25838 -0.11885,-0.47542 v -1.98954 q 0,-0.17054 0.12919,-0.45993 0.13436,-0.28938 0.3359,-0.44958 l 0.36173,-0.28422 q 0.35657,-0.28939 0.79065,-0.28939 h 1.21957 q 0.45992,0 0.86816,0.38241 l 0.32556,0.31006 q 0.3514,0.31522 0.3514,0.94051 z m -3.49333,-0.0672 v 0.67179 h 2.6355 v -0.60461 q 0,-0.24288 -0.14986,-0.37207 l -0.25321,-0.22221 q -0.19637,-0.1602 -0.3514,-0.1602 h -1.09038 q -0.20154,0 -0.3669,0.13953 l -0.25321,0.21187 q -0.17054,0.12919 -0.17054,0.3359 z"
           inkscape:connector-curvature="0" />
        <path
           id="path20"
           style="stroke-width:0.26458332"
           d="m 120.03254,125.72066 v -4.11861 q 0,-0.18086 0.12402,-0.31006 0.12919,-0.13435 0.31006,-0.13435 0.18087,0 0.30489,0.12919 0.12919,0.12919 0.12919,0.31522 v 0.54261 l 0.70797,-0.60462 q 0.43925,-0.37207 0.85783,-0.37207 h 0.63562 q 0.53743,0 0.91984,0.38241 0.38241,0.3824 0.38241,0.91984 v 0.23254 q 0,0.18604 -0.1292,0.31523 -0.12402,0.12919 -0.30489,0.12919 -0.18086,0 -0.31006,-0.12402 -0.12402,-0.1292 -0.12402,-0.31006 v -0.24288 q 0,-0.18087 -0.12919,-0.30489 -0.12402,-0.12919 -0.30489,-0.12919 h -0.56327 q -0.18087,0 -0.40308,0.1912 l -1.23507,1.0697 v 2.42362 q 0,0.18087 -0.12919,0.31006 -0.12919,0.12403 -0.30489,0.12403 -0.18087,0 -0.31006,-0.12403 -0.12402,-0.12919 -0.12402,-0.31006 z"
           inkscape:connector-curvature="0" />
        <path
           id="path22"
           style="stroke-width:0.26458332"
           d="m 130.79674,122.80095 v 1.04903 q 0,0.1757 -0.12919,0.30489 -0.12919,0.12919 -0.30489,0.12919 h -3.06958 v 0.25321 q 0,0.22221 0.1912,0.37724 l 0.25321,0.21188 q 0.20671,0.16019 0.39275,0.16019 h 2.23242 q 0.1757,0 0.30489,0.12919 0.12919,0.12403 0.12919,0.30489 0,0.1757 -0.13436,0.3049 -0.12919,0.12919 -0.29972,0.12919 h -2.28927 q -0.22737,0 -0.48059,-0.093 -0.24805,-0.0982 -0.3669,-0.20154 l -0.38758,-0.34106 q -0.18086,-0.1447 -0.30489,-0.40308 -0.11885,-0.25838 -0.11885,-0.47542 v -1.98954 q 0,-0.17054 0.12919,-0.45993 0.13436,-0.28938 0.3359,-0.44958 l 0.36173,-0.28422 q 0.35657,-0.28939 0.79065,-0.28939 h 1.21956 q 0.45992,0 0.86817,0.38241 l 0.32556,0.31006 q 0.3514,0.31522 0.3514,0.94051 z m -3.49333,-0.0672 v 0.67179 h 2.6355 v -0.60461 q 0,-0.24288 -0.14986,-0.37207 l -0.25322,-0.22221 q -0.19637,-0.1602 -0.3514,-0.1602 h -1.09037 q -0.20154,0 -0.3669,0.13953 l -0.25322,0.21187 q -0.17053,0.12919 -0.17053,0.3359 z"
           inkscape:connector-curvature="0" />
        <path
           id="path24"
           style="stroke-width:0.26458332"
           d="m 134.59496,119.28695 h 0.85783 q 0.18086,0 0.31005,0.13436 0.1292,0.12919 0.1292,0.30489 0,0.0568 -0.0155,0.10852 l -0.86816,2.9869 q -0.10335,0.32556 -0.42375,0.32556 -0.1912,0 -0.32039,-0.13436 -0.12403,-0.13436 -0.12403,-0.33073 v -2.90938 q 0,-0.20671 0.11886,-0.34623 0.12402,-0.13953 0.3359,-0.13953 z"
           inkscape:connector-curvature="0" />
        <path
           id="path26"
           style="stroke-width:0.26458332"
           d="m 140.42406,121.16797 h 1.98954 q 0.46509,0 0.82166,0.27905 0.35656,0.27389 0.35656,0.53744 0,0.18603 -0.13435,0.30489 -0.1292,0.11886 -0.28939,0.11886 -0.20671,0 -0.37724,-0.18604 -0.17053,-0.18603 -0.35657,-0.18603 h -1.9637 q -0.28939,0 -0.28939,0.24287 0,0.17054 0.1912,0.25839 l 2.30994,1.02319 q 0.3514,0.15503 0.57361,0.50126 0.22737,0.34107 0.22737,0.75965 0,0.5581 -0.3979,0.94567 -0.39275,0.38758 -0.89401,0.38758 h -1.757 q -0.45475,0 -0.84749,-0.27389 -0.38757,-0.27388 -0.38757,-0.53227 0,-0.17053 0.12402,-0.29972 0.12919,-0.13436 0.33073,-0.13436 0.16537,0 0.3514,0.18604 0.1912,0.18603 0.54777,0.18603 h 1.61747 q 0.19121,0 0.3204,-0.14469 0.12919,-0.14986 0.12919,-0.34107 0,-0.29455 -0.28939,-0.42374 l -2.33061,-1.04903 q -0.33589,-0.14987 -0.51676,-0.43409 -0.18087,-0.28422 -0.18087,-0.57877 0,-0.46509 0.32039,-0.80615 0.32557,-0.34107 0.80099,-0.34107 z"
           inkscape:connector-curvature="0" />
        <path
           id="path28"
           style="stroke-width:0.26458332"
           d="m 154.04597,122.17566 -1.18339,0.76998 v 2.77502 q 0,0.1757 -0.1292,0.3049 -0.12919,0.12919 -0.30489,0.12919 -0.1757,0 -0.30489,-0.12919 -0.12919,-0.1292 -0.12919,-0.3049 v -4.11861 q 0,-0.18086 0.12402,-0.31006 0.1292,-0.13435 0.31006,-0.13435 0.1757,0 0.30489,0.13435 0.1292,0.1292 0.1292,0.31006 v 0.28939 l 0.79064,-0.48059 q 0.39791,-0.25321 0.89917,-0.25321 h 0.40308 q 0.51677,0 0.894,0.3669 0.37724,0.3669 0.39791,0.90434 l 0.11886,3.29178 q 0.005,0.1757 -0.12403,0.3049 -0.12919,0.12919 -0.31005,0.12919 -0.17054,0 -0.29973,-0.11369 -0.12919,-0.11886 -0.13436,-0.3204 l -0.12919,-3.24011 q -0.0155,-0.45475 -0.47542,-0.45475 h -0.42375 q -0.19637,0 -0.42374,0.14986 z"
           inkscape:connector-curvature="0" />
        <path
           id="path30"
           style="stroke-width:0.26458332"
           d="m 162.75861,122.73377 v 1.83451 q 0,0.58394 -0.55293,1.08004 -0.54777,0.49609 -1.13172,0.49609 h -1.01802 q -0.59428,0 -1.13689,-0.50126 -0.5426,-0.50643 -0.5426,-1.07487 v -1.83451 q 0,-0.56844 0.5271,-1.0697 0.53227,-0.50643 1.15239,-0.50643 h 1.01802 q 0.58395,-0.0103 1.13172,0.48575 0.55293,0.4961 0.55293,1.09038 z m -3.50366,0.0362 v 1.757 q 0,0.23771 0.17053,0.37724 l 0.32557,0.27905 q 0.10852,0.093 0.30489,0.093 h 1.00769 q 0.22221,0 0.40307,-0.1602 l 0.26355,-0.23254 q 0.1602,-0.12403 0.1602,-0.34624 v -1.75699 q 0,-0.25839 -0.1602,-0.38241 l -0.30489,-0.24288 q -0.15503,-0.12919 -0.36173,-0.12919 h -0.89917 q -0.29456,0 -0.45476,0.13953 l -0.29455,0.25321 q -0.1602,0.13436 -0.1602,0.3514 z"
           inkscape:connector-curvature="0" />
        <path
           id="path32"
           style="stroke-width:0.26458332"
           d="m 172.05003,125.65865 v 1.92237 q 0,0.18603 -0.12919,0.31522 -0.12402,0.12919 -0.30489,0.12919 -0.18087,0 -0.31523,-0.12919 -0.12919,-0.12919 -0.12919,-0.31522 v -6.19084 q 0,-0.1757 0.12919,-0.30489 0.12919,-0.12919 0.31523,-0.12919 0.1757,0 0.30489,0.12919 0.12919,0.12919 0.12919,0.30489 v 0.27905 q 0.63045,-0.7028 1.2454,-0.7028 h 0.20154 q 0.45992,0 0.84749,0.34107 l 0.72347,0.62528 q 0.47543,0.41341 0.47543,1.04903 v 1.35393 q 0,0.64078 -0.5116,1.08003 l -0.70797,0.60979 q -0.3514,0.32039 -0.88883,0.32039 h -0.1912 q -0.50643,0 -0.85783,-0.3514 z m 1.22473,-0.1912 h 0.22221 q 0.1602,0 0.34107,-0.1602 l 0.67696,-0.59428 q 0.17053,-0.13435 0.17053,-0.3669 v -1.40043 q 0,-0.20671 -0.1912,-0.3669 l -0.72864,-0.62529 q -0.12402,-0.10852 -0.26872,-0.10852 h -0.25321 q -0.1447,0 -0.37724,0.23771 l -0.64596,0.64079 q -0.17053,0.17053 -0.17053,0.38241 v 1.11104 q 0,0.20154 0.1912,0.39274 l 0.62529,0.62529 q 0.23254,0.23254 0.40824,0.23254 z"
           inkscape:connector-curvature="0" />
        <path
           id="path34"
           style="stroke-width:0.26458332"
           d="m 181.06757,126.15475 h -2.62516 q -0.18087,0 -0.31006,-0.12919 -0.12402,-0.13436 -0.12402,-0.31523 0,-0.1757 0.12402,-0.30489 0.12919,-0.12919 0.31006,-0.12919 h 0.86816 v -5.12114 h -0.87849 q -0.18087,0 -0.31006,-0.12402 -0.12403,-0.12919 -0.12403,-0.31006 0,-0.18087 0.12403,-0.30489 0.12919,-0.12919 0.31006,-0.12919 h 1.32291 q 0.1757,0 0.30489,0.12919 0.12919,0.12919 0.12919,0.30489 v 5.55522 h 0.8785 q 0.1757,0 0.30489,0.12919 0.1292,0.12919 0.1292,0.30489 0,0.18087 -0.1292,0.31523 -0.12402,0.12919 -0.30489,0.12919 z"
           inkscape:connector-curvature="0" />
        <path
           id="path36"
           style="stroke-width:0.26458332"
           d="m 185.24819,123.02316 h 1.70016 q 0.13953,0 0.40308,0.062 l -0.0103,-0.61495 q 0,-0.18087 -0.12919,-0.30489 -0.12402,-0.12919 -0.30489,-0.12919 h -1.64848 q -0.1757,0 -0.30489,-0.1292 -0.12919,-0.12919 -0.12919,-0.30489 0,-0.18086 0.12402,-0.30489 0.12919,-0.12919 0.31006,-0.12919 h 1.64848 q 0.53743,0 0.91467,0.37724 0.38241,0.37724 0.39791,0.92501 l 0.10852,3.25044 q 0,0.18087 -0.12919,0.31006 -0.12919,0.12403 -0.30489,0.12403 -0.18604,0 -0.31523,-0.12403 -0.12919,-0.12919 -0.12919,-0.31006 l -0.73381,0.43409 h -1.46761 q -0.54777,0 -0.93017,-0.38241 -0.38241,-0.3824 -0.38241,-0.93017 v -0.50643 q 0,-0.54261 0.38241,-0.92501 0.38757,-0.38757 0.93017,-0.38757 z m 2.17041,1.68981 -0.0258,-0.3669 q -0.005,-0.18603 -0.12919,-0.31006 -0.12403,-0.12402 -0.3049,-0.12402 h -1.71049 q -0.18086,0 -0.31005,0.12919 -0.12403,0.12402 -0.12403,0.30489 v 0.48576 q 0,0.1757 0.12919,0.30489 0.12919,0.12919 0.30489,0.12919 h 1.22474 z"
           inkscape:connector-curvature="0" />
        <path
           id="path38"
           style="stroke-width:0.26458332"
           d="m 194.29673,126.15475 h -1.85518 q -0.49092,0 -0.83716,-0.29456 l -0.84232,-0.7338 q -0.40308,-0.3359 -0.40308,-0.90951 v -1.13171 q -0.0207,-0.55294 0.45475,-0.96118 l 0.75965,-0.6563 q 0.3669,-0.29972 0.78548,-0.29972 h 1.9482 q 0.18087,0 0.30489,0.12919 0.12919,0.12403 0.12919,0.30489 0,0.18604 -0.12919,0.31006 -0.12402,0.12403 -0.30489,0.12403 h -1.86552 q -0.1757,0 -0.3359,0.13952 l -0.69763,0.59428 q -0.17053,0.14469 -0.17053,0.38757 v 1.05937 q 0,0.17053 0.13436,0.28939 l 0.76481,0.65112 q 0.14469,0.12919 0.38241,0.12919 h 1.77766 q 0.1757,0 0.3049,0.12919 0.12919,0.12403 0.12919,0.30489 0,0.18087 -0.12919,0.31006 -0.12403,0.12403 -0.3049,0.12403 z"
           inkscape:connector-curvature="0" />
        <path
           id="path40"
           style="stroke-width:0.26458332"
           d="m 201.11286,122.80095 v 1.04903 q 0,0.1757 -0.12919,0.30489 -0.12919,0.12919 -0.30489,0.12919 h -3.06958 v 0.25321 q 0,0.22221 0.1912,0.37724 l 0.25322,0.21188 q 0.2067,0.16019 0.39274,0.16019 h 2.23242 q 0.1757,0 0.30489,0.12919 0.12919,0.12403 0.12919,0.30489 0,0.1757 -0.13436,0.3049 -0.12919,0.12919 -0.29972,0.12919 h -2.28927 q -0.22737,0 -0.48059,-0.093 -0.24804,-0.0982 -0.3669,-0.20154 l -0.38757,-0.34106 q -0.18087,-0.1447 -0.30489,-0.40308 -0.11886,-0.25838 -0.11886,-0.47542 v -1.98954 q 0,-0.17054 0.12919,-0.45993 0.13436,-0.28938 0.3359,-0.44958 l 0.36173,-0.28422 q 0.35657,-0.28939 0.79065,-0.28939 h 1.21957 q 0.45992,0 0.86816,0.38241 l 0.32556,0.31006 q 0.3514,0.31522 0.3514,0.94051 z m -3.49333,-0.0672 v 0.67179 h 2.6355 v -0.60461 q 0,-0.24288 -0.14986,-0.37207 l -0.25321,-0.22221 q -0.19637,-0.1602 -0.3514,-0.1602 h -1.09038 q -0.20153,0 -0.3669,0.13953 l -0.25321,0.21187 q -0.17054,0.12919 -0.17054,0.3359 z"
           inkscape:connector-curvature="0" />
      </g>
      <g
         id="g55"
         transform="translate(-22.611014,15.420347)">
        <path
           id="path42"
           style="stroke-width:0.26458332"
           d="m 213.02944,126.15475 h -2.62516 q -0.18087,0 -0.31006,-0.12919 -0.12402,-0.13436 -0.12402,-0.31523 0,-0.1757 0.12402,-0.30489 0.12919,-0.12919 0.31006,-0.12919 h 0.86816 v -5.12114 h -0.8785 q -0.18086,0 -0.31005,-0.12402 -0.12403,-0.12919 -0.12403,-0.31006 0,-0.18087 0.12403,-0.30489 0.12919,-0.12919 0.31005,-0.12919 h 1.32292 q 0.1757,0 0.30489,0.12919 0.12919,0.12919 0.12919,0.30489 v 5.55522 h 0.8785 q 0.1757,0 0.30489,0.12919 0.12919,0.12919 0.12919,0.30489 0,0.18087 -0.12919,0.31523 -0.12402,0.12919 -0.30489,0.12919 z"
           inkscape:connector-curvature="0" />
        <path
           id="path44"
           style="stroke-width:0.26458332"
           d="m 217.65449,118.90454 h 0.45475 q 0.18087,0 0.30489,0.12919 0.12919,0.12403 0.12919,0.3049 v 0.37207 q 0,0.18086 -0.12919,0.31522 -0.12402,0.12919 -0.30489,0.12919 h -0.46509 q -0.18603,0 -0.31522,-0.13436 -0.12403,-0.13435 -0.11886,-0.29972 l 0.0103,-0.3824 q 0,-0.18087 0.12402,-0.3049 0.12919,-0.12919 0.31006,-0.12919 z m 1.76733,7.23987 h -2.64583 q -0.18087,0 -0.31006,-0.12402 -0.12402,-0.12919 -0.12402,-0.31006 0,-0.1757 0.12402,-0.30489 0.12919,-0.12919 0.31006,-0.12919 h 0.88883 v -3.24011 h -0.8785 q -0.18086,0 -0.31006,-0.1292 -0.12402,-0.12919 -0.12402,-0.30489 0,-0.18086 0.12402,-0.31006 0.1292,-0.13435 0.31006,-0.13435 h 1.32292 q 0.18087,0 0.30489,0.13435 0.12919,0.1292 0.12919,0.31006 v 3.6742 h 0.86817 q 0.18086,0 0.31005,0.12919 0.13436,0.12402 0.13436,0.30489 0,0.18087 -0.12919,0.31006 -0.12919,0.12402 -0.30489,0.12402 z"
           inkscape:connector-curvature="0" />
        <path
           id="path46"
           style="stroke-width:0.26458332"
           d="m 222.31053,125.72066 v -5.98929 q 0,-0.18604 0.12403,-0.31523 0.12919,-0.12919 0.31005,-0.12919 0.18087,0 0.30489,0.12919 0.1292,0.12919 0.1292,0.31523 v 3.545 l 2.33577,-1.98954 q 0.14986,-0.12403 0.32556,-0.12403 0.18604,0 0.31006,0.13436 0.12402,0.12919 0.12402,0.31006 0,0.1912 -0.13435,0.30489 l -1.81902,1.54513 2.24276,1.96887 q 0.13436,0.10852 0.13436,0.28422 0,0.17053 -0.12402,0.31006 -0.12403,0.13436 -0.30489,0.13436 -0.18087,0 -0.3204,-0.11886 l -2.3151,-2.01021 -0.45475,0.3824 v 1.31258 q 0,0.18087 -0.1292,0.31006 -0.12402,0.12403 -0.30489,0.12403 -0.18086,0 -0.31005,-0.12403 -0.12403,-0.12919 -0.12403,-0.31006 z"
           inkscape:connector-curvature="0" />
        <path
           id="path48"
           style="stroke-width:0.26458332"
           d="m 233.07473,122.80095 v 1.04903 q 0,0.1757 -0.12919,0.30489 -0.12919,0.12919 -0.30489,0.12919 h -3.06958 v 0.25321 q 0,0.22221 0.1912,0.37724 l 0.25322,0.21188 q 0.2067,0.16019 0.39274,0.16019 h 2.23242 q 0.1757,0 0.30489,0.12919 0.12919,0.12403 0.12919,0.30489 0,0.1757 -0.13436,0.3049 -0.12919,0.12919 -0.29972,0.12919 h -2.28927 q -0.22737,0 -0.48059,-0.093 -0.24805,-0.0982 -0.3669,-0.20154 l -0.38757,-0.34106 q -0.18087,-0.1447 -0.3049,-0.40308 -0.11885,-0.25838 -0.11885,-0.47542 v -1.98954 q 0,-0.17054 0.12919,-0.45993 0.13436,-0.28938 0.3359,-0.44958 l 0.36173,-0.28422 q 0.35657,-0.28939 0.79065,-0.28939 h 1.21956 q 0.45992,0 0.86817,0.38241 l 0.32556,0.31006 q 0.3514,0.31522 0.3514,0.94051 z m -3.49333,-0.0672 v 0.67179 h 2.6355 v -0.60461 q 0,-0.24288 -0.14986,-0.37207 l -0.25322,-0.22221 q -0.19637,-0.1602 -0.35139,-0.1602 h -1.09038 q -0.20154,0 -0.3669,0.13953 l -0.25321,0.21187 q -0.17054,0.12919 -0.17054,0.3359 z"
           inkscape:connector-curvature="0" />
      </g>
      <g
         id="g66"
         transform="translate(-70.305779,29.533283)">
        <path
           id="path50"
           style="stroke-width:0.26458332"
           d="m 241.89072,125.27625 h 1.33326 v -5.12114 h -1.31259 q -0.18086,0 -0.31005,-0.12402 -0.12403,-0.12919 -0.12403,-0.31006 0,-0.18087 0.12403,-0.30489 0.12919,-0.12919 0.31005,-0.12919 h 2.18075 v 5.9893 h 0.86816 v -1.80868 q 0,-0.1757 0.12403,-0.30489 0.12919,-0.12919 0.31006,-0.12919 0.18086,0 0.30489,0.12919 0.12919,0.12403 0.12919,0.30489 v 2.24276 q 0,0.18087 -0.12919,0.31006 -0.12403,0.12402 -0.30489,0.12402 h -3.50367 q -0.18086,0 -0.31005,-0.12919 -0.12403,-0.13436 -0.12403,-0.31523 0,-0.1757 0.12403,-0.29972 0.12919,-0.12402 0.31005,-0.12402 z"
           inkscape:connector-curvature="0" />
        <path
           id="path52"
           style="stroke-width:0.26458332"
           d="m 251.81777,126.14441 h -3.94808 v -2.99723 q 0,-0.36174 0.25322,-0.62012 0.25838,-0.25838 0.61495,-0.25838 h 2.63549 v -2.11357 h -3.10058 q -0.18604,0 -0.31006,-0.12402 -0.12402,-0.12919 -0.12402,-0.31006 0,-0.18087 0.12402,-0.30489 0.12402,-0.12919 0.31006,-0.12919 h 3.10058 q 0.36174,0 0.62012,0.25838 0.25838,0.25322 0.25838,0.60978 v 2.11357 q 0,0.3669 -0.25838,0.62528 -0.25838,0.25322 -0.62012,0.25322 h -2.63549 v 2.12907 h 3.07991 q 0.1757,0 0.30489,0.12919 0.12919,0.12402 0.12919,0.30489 0,0.18087 -0.12919,0.31006 -0.12919,0.12402 -0.30489,0.12402 z"
           inkscape:connector-curvature="0" />
        <path
           id="path54"
           style="stroke-width:0.26458332"
           d="m 254.25174,120.10344 v -0.37207 q 0,-0.18087 0.12402,-0.30489 0.12919,-0.1292 0.31006,-0.1292 h 3.93774 v 2.66651 q 0,0.21187 -0.16019,0.3514 l -1.59681,1.36426 v 2.02054 q 0,0.18087 -0.12919,0.31523 -0.12402,0.12919 -0.30489,0.12919 -0.18087,0 -0.31522,-0.12919 -0.12919,-0.12919 -0.12919,-0.30489 v -2.19108 q 0,-0.24805 0.15502,-0.38241 l 1.60197,-1.35392 v -1.61747 h -2.62516 q -0.093,0.37207 -0.43408,0.37207 -0.18087,0 -0.31006,-0.12402 -0.12402,-0.1292 -0.12402,-0.31006 z"
           inkscape:connector-curvature="0" />
        <path
           id="path56"
           style="stroke-width:0.26458332"
           d="m 262.4011,123.4159 h 0.8785 q 0.1757,0 0.30489,0.12919 0.12919,0.12402 0.12919,0.30489 v 0.73897 q 0,0.18087 -0.12919,0.31523 -0.12402,0.12919 -0.30489,0.12919 h -0.88884 q -0.18086,0 -0.31005,-0.12919 -0.12403,-0.12919 -0.12403,-0.30489 v -0.74931 q 0,-0.18087 0.12919,-0.30489 0.12919,-0.12919 0.31523,-0.12919 z"
           inkscape:connector-curvature="0" />
        <path
           id="path58"
           style="stroke-width:0.26458332"
           d="m 267.03648,125.30725 v -5.19348 q 0,-0.34106 0.24805,-0.58911 0.24804,-0.24805 0.58911,-0.24805 h 2.70784 q 0.3359,0 0.57878,0.24805 0.24805,0.24805 0.24805,0.58911 v 5.19348 q 0,0.34624 -0.24805,0.59428 -0.24288,0.24288 -0.58911,0.24288 h -2.69751 q -0.3514,0 -0.59428,-0.24288 -0.24288,-0.24804 -0.24288,-0.59428 z m 3.514,-0.031 v -5.12114 h -2.64583 v 5.12114 z"
           inkscape:connector-curvature="0" />
        <path
           id="path60"
           style="stroke-width:0.26458332"
           d="m 275.18586,123.4159 h 0.8785 q 0.1757,0 0.30489,0.12919 0.12919,0.12402 0.12919,0.30489 v 0.73897 q 0,0.18087 -0.12919,0.31523 -0.12402,0.12919 -0.30489,0.12919 h -0.88884 q -0.18086,0 -0.31005,-0.12919 -0.12403,-0.12919 -0.12403,-0.30489 v -0.74931 q 0,-0.18087 0.12919,-0.30489 0.12919,-0.12919 0.31523,-0.12919 z"
           inkscape:connector-curvature="0" />
        <path
           id="path62"
           style="stroke-width:0.26458332"
           d="m 279.82123,125.30725 v -5.19348 q 0,-0.34106 0.24804,-0.58911 0.24805,-0.24805 0.58911,-0.24805 h 2.70785 q 0.3359,0 0.57877,0.24805 0.24805,0.24805 0.24805,0.58911 v 5.19348 q 0,0.34624 -0.24805,0.59428 -0.24287,0.24288 -0.58911,0.24288 h -2.69751 q -0.3514,0 -0.59428,-0.24288 -0.24287,-0.24804 -0.24287,-0.59428 z m 3.51399,-0.031 v -5.12114 h -2.64583 v 5.12114 z"
           inkscape:connector-curvature="0" />
        <path
           id="path64"
           style="stroke-width:0.26458332"
           d="m 287.9706,123.4159 h 0.8785 q 0.1757,0 0.30489,0.12919 0.1292,0.12402 0.1292,0.30489 v 0.73897 q 0,0.18087 -0.1292,0.31523 -0.12402,0.12919 -0.30489,0.12919 h -0.88883 q -0.18087,0 -0.31006,-0.12919 -0.12402,-0.12919 -0.12402,-0.30489 v -0.74931 q 0,-0.18087 0.12919,-0.30489 0.12919,-0.12919 0.31522,-0.12919 z"
           inkscape:connector-curvature="0" />
        <path
           id="path66"
           style="stroke-width:0.26458332"
           d="m 293.02973,125.27625 h 1.33325 v -5.12114 h -1.31258 q -0.18087,0 -0.31006,-0.12402 -0.12402,-0.12919 -0.12402,-0.31006 0,-0.18087 0.12402,-0.30489 0.12919,-0.12919 0.31006,-0.12919 h 2.18075 v 5.9893 h 0.86816 v -1.80868 q 0,-0.1757 0.12403,-0.30489 0.12919,-0.12919 0.31005,-0.12919 0.18087,0 0.30489,0.12919 0.1292,0.12403 0.1292,0.30489 v 2.24276 q 0,0.18087 -0.1292,0.31006 -0.12402,0.12402 -0.30489,0.12402 h -3.50366 q -0.18087,0 -0.31006,-0.12919 -0.12402,-0.13436 -0.12402,-0.31523 0,-0.1757 0.12402,-0.29972 0.12919,-0.12402 0.31006,-0.12402 z"
           inkscape:connector-curvature="0" />
      </g>
    </g>
  </g>
</svg>
