<?xml version="1.0" encoding="UTF-8" standalone="no"?>
<svg
   xmlns:dc="http://purl.org/dc/elements/1.1/"
   xmlns:cc="http://creativecommons.org/ns#"
   xmlns:rdf="http://www.w3.org/1999/02/22-rdf-syntax-ns#"
   xmlns:svg="http://www.w3.org/2000/svg"
   xmlns="http://www.w3.org/2000/svg"
   xmlns:sodipodi="http://sodipodi.sourceforge.net/DTD/sodipodi-0.dtd"
   xmlns:inkscape="http://www.inkscape.org/namespaces/inkscape"
   version="1.1"
   id="svg5676"
   viewBox="0 0 100 100"
   height="100"
   width="100"
   sodipodi:docname="day.svg"
   inkscape:version="0.92.5 (2060ec1f9f, 2020-04-08)">
  <sodipodi:namedview
     pagecolor="#ffffff"
     bordercolor="#666666"
     borderopacity="1"
     objecttolerance="10"
     gridtolerance="10"
     guidetolerance="10"
     inkscape:pageopacity="0"
     inkscape:pageshadow="2"
     inkscape:window-width="1920"
     inkscape:window-height="1043"
     id="namedview877"
     showgrid="false"
     inkscape:zoom="8.3800006"
     inkscape:cx="28.579935"
     inkscape:cy="49.999996"
     inkscape:window-x="1920"
     inkscape:window-y="0"
     inkscape:window-maximized="1"
     inkscape:current-layer="g5668" />
  <defs
     id="defs5678" />
  <metadata
     id="metadata5681">
    <rdf:RDF>
      <cc:Work
         rdf:about="">
        <dc:format>image/svg+xml</dc:format>
        <dc:type
           rdf:resource="http://purl.org/dc/dcmitype/StillImage" />
        <dc:title></dc:title>
      </cc:Work>
    </rdf:RDF>
  </metadata>
  <g
     transform="translate(-467.14292,-662.3622)"
     id="layer1">
    <g
       id="g5668"
       style="display:inline"
       transform="translate(2832.9859,467.44267)">
      <rect
         style="fill:#b5d3ff;fill-opacity:1;stroke:none;stroke-width:1.00359285;stroke-opacity:1"
         id="rect2109"
         width="100"
         height="100"
         x="-2365.843"
         y="194.91953" />
      <path
         style="display:inline;fill:#ff8516;fill-opacity:1;stroke-width:1.68903112"
         d="m -2320.6573,213.03434 a 1.3310629,1.3310629 0 0 0 -1.0953,0.53772 l -4.3216,5.82254 a 27.51074,27.51074 0 0 1 10.23,-1.98594 27.51074,27.51074 0 0 1 1.877,0.0956 l -5.9445,-4.22258 a 1.3310629,1.3310629 0 0 0 -0.7456,-0.24741 z m 15.8215,1.67584 a 1.3310629,1.3310629 0 0 0 -0.452,0.10877 l -6.6934,2.89642 a 27.51074,27.51074 0 0 1 11.4504,4.36113 l -3.0152,-6.59118 a 1.3310629,1.3310629 0 0 0 -1.1547,-0.77523 1.3310629,1.3310629 0 0 0 -0.1351,0 z m -30.4818,4.83946 a 1.3310629,1.3310629 0 0 0 -1.3162,1.17771 l -0.8347,7.23775 a 27.51074,27.51074 0 0 1 9.5107,-7.72598 l -7.2278,-0.68617 a 1.3310629,1.3310629 0 0 0 -0.1318,-0.003 z m 19.4734,0.75875 a 24.61178,24.61178 0 0 0 -24.6097,24.6097 24.61178,24.61178 0 0 0 24.6097,24.61302 24.61178,24.61178 0 0 0 24.6129,-24.61302 24.61178,24.61178 0 0 0 -24.6129,-24.6097 z m 16.9562,2.98549 a 27.51074,27.51074 0 0 1 7.7261,9.514 l 0.6861,-7.23117 a 1.3310629,1.3310629 0 0 0 -1.1744,-1.44821 z m -39.7978,6.31407 -6.5911,3.0152 a 1.3310629,1.3310629 0 0 0 -0.6664,1.7385 l 2.8964,6.69015 a 27.51074,27.51074 0 0 1 4.3611,-11.44385 z m 48.3684,5.08029 a 27.51074,27.51074 0 0 1 1.9858,10.23316 27.51074,27.51074 0 0 1 -0.093,1.87047 l 4.2192,-5.9413 a 1.3310629,1.3310629 0 0 0 -0.2903,-1.84078 l -5.8225,-4.32155 z m -52.9438,8.3627 a 27.51074,27.51074 0 0 0 0,0.007 z m 0,0.007 -4.2194,5.93139 a 1.3310629,1.3310629 0 0 0 0.2903,1.84079 l 5.8226,4.32154 a 27.51074,27.51074 0 0 1 -1.9859,-10.22985 27.51074,27.51074 0 0 1 0.093,-1.86387 z m 54.6229,5.72687 a 27.51074,27.51074 0 0 1 -4.3611,11.44713 l 6.5911,-3.01517 a 1.3310629,1.3310629 0 0 0 0.6663,-1.73852 z m -51.8849,8.25052 -0.6862,7.22786 a 1.3310629,1.3310629 0 0 0 1.1744,1.44821 l 7.2378,0.83463 a 27.51074,27.51074 0 0 1 -7.726,-9.5107 z m 46.3065,4.83947 a 27.51074,27.51074 0 0 1 -9.5107,7.726 l 7.2278,0.68617 a 1.3310629,1.3310629 0 0 0 1.4482,-1.1744 z m -36.9377,5.88852 3.0152,6.59117 a 1.3310629,1.3310629 0 0 0 1.7385,0.66638 l 6.6935,-2.89642 a 27.51074,27.51074 0 0 1 -11.4472,-4.36113 z m 25.54,2.68199 a 27.51074,27.51074 0 0 1 -10.2298,1.98593 27.51074,27.51074 0 0 1 -1.8639,-0.0956 l 5.9346,4.22258 a 1.3310629,1.3310629 0 0 0 1.8409,-0.29029 l 4.3182,-5.82255 z"
         id="path5018-3"
         inkscape:connector-curvature="0" />
    </g>
  </g>
</svg>
