<?xml version="1.0" encoding="UTF-8" standalone="no"?>
<svg
   xmlns:dc="http://purl.org/dc/elements/1.1/"
   xmlns:cc="http://creativecommons.org/ns#"
   xmlns:rdf="http://www.w3.org/1999/02/22-rdf-syntax-ns#"
   xmlns:svg="http://www.w3.org/2000/svg"
   xmlns="http://www.w3.org/2000/svg"
   xmlns:sodipodi="http://sodipodi.sourceforge.net/DTD/sodipodi-0.dtd"
   xmlns:inkscape="http://www.inkscape.org/namespaces/inkscape"
   version="1.1"
   id="svg5676"
   viewBox="0 0 100 100"
   height="100"
   width="100"
   sodipodi:docname="night.svg"
   inkscape:version="0.92.5 (2060ec1f9f, 2020-04-08)">
  <sodipodi:namedview
     pagecolor="#ffffff"
     bordercolor="#666666"
     borderopacity="1"
     objecttolerance="10"
     gridtolerance="10"
     guidetolerance="10"
     inkscape:pageopacity="0"
     inkscape:pageshadow="2"
     inkscape:window-width="1920"
     inkscape:window-height="1043"
     id="namedview877"
     showgrid="false"
     inkscape:zoom="8.3800006"
     inkscape:cx="28.579935"
     inkscape:cy="49.999996"
     inkscape:window-x="1920"
     inkscape:window-y="0"
     inkscape:window-maximized="1"
     inkscape:current-layer="g5668" />
  <defs
     id="defs5678" />
  <metadata
     id="metadata5681">
    <rdf:RDF>
      <cc:Work
         rdf:about="">
        <dc:format>image/svg+xml</dc:format>
        <dc:type
           rdf:resource="http://purl.org/dc/dcmitype/StillImage" />
        <dc:title></dc:title>
      </cc:Work>
    </rdf:RDF>
  </metadata>
  <g
     transform="translate(-467.14292,-662.3622)"
     id="layer1">
    <g
       id="g5668"
       style="display:inline"
       transform="translate(2832.9859,467.44267)">
      <rect
         style="fill:#142b54;fill-opacity:1;stroke:none;stroke-width:5.86530542;stroke-opacity:1"
         id="rect2149"
         width="100"
         height="100"
         x="-2365.843"
         y="194.91954" />
      <path
         style="fill:#efed81;fill-opacity:1;stroke:#efed81;stroke-width:2;stroke-linecap:round;stroke-linejoin:round;stroke-miterlimit:4;stroke-dasharray:none;stroke-opacity:1"
         d="m -2303.8319,237.42104 a 25.75,25.75 0 0 1 4.1621,14.02344 25.75,25.75 0 0 1 -25.75,25.75 25.75,25.75 0 0 1 -7.7129,-1.1875 27.125,27.125 0 0 0 24.3379,15.1875 27.125,27.125 0 0 0 27.125,-27.125 27.125,27.125 0 0 0 -22.1621,-26.64844 z"
         id="path5332"
         inkscape:connector-curvature="0" />
      <path
         style="display:inline;fill:#142b54;fill-opacity:1"
         d="m -2286.4537,285.37038 a 50,50 0 0 1 -69.8401,-11.06158 l 80.9016,-58.77853 a 50,50 0 0 1 -11.0615,69.84011 z"
         id="path4979-3-4"
         inkscape:connector-curvature="0" />
      <path
         style="display:inline;fill:#efed81;fill-opacity:1;stroke:none;stroke-width:2.57735634;stroke-linecap:round;stroke-linejoin:round;stroke-miterlimit:4;stroke-dasharray:none;stroke-opacity:1"
         d="m -2284.2339,204.86354 -0.4128,2.49178 -2.4918,0.41026 2.4918,0.41278 0.4128,2.49179 0.4103,-2.49179 2.4918,-0.41278 -2.4918,-0.41026 z m 12.2424,12.24245 -0.7299,4.42983 -4.4298,0.72739 4.4298,0.72992 0.7299,4.42983 0.7275,-4.42983 4.4298,-0.72992 -4.4298,-0.72739 z m -29.3702,8.26314 a 0.64440351,0.64440351 0 0 0 -0.6092,0.89352 c 1.7489,4.19196 2.2609,8.79773 1.4724,13.27187 -2.2791,12.92497 -14.5808,21.54332 -27.4976,19.26726 -1.9663,-0.35711 -3.8784,-0.96031 -5.6934,-1.79712 a 0.64440351,0.64440351 0 0 0 -0.8406,0.88597 c 3.5043,6.59274 9.8483,11.20524 17.1983,12.50421 13.1895,2.32547 25.7849,-6.49853 28.1119,-19.69513 1.7616,-10.06703 -2.9708,-20.16365 -11.8323,-25.24501 a 0.64440351,0.64440351 0 0 0 -0.3071,-0.0856 v 0 z m -18.9426,4.00194 -0.4354,2.64028 -2.6378,0.43292 2.6378,0.43543 0.4354,2.63777 0.4355,-2.63777 2.6376,-0.43543 -2.6376,-0.43292 z m 42.8359,9.05599 -0.4027,2.44396 -2.4439,0.4002 2.4439,0.40271 0.4027,2.44395 0.4003,-2.44395 2.4439,-0.40271 -2.4439,-0.4002 z m -83.5148,24.15266 -0.5463,3.32236 -3.3223,0.5487 3.3223,0.54618 0.5463,3.32238 0.5486,-3.32238 3.3225,-0.54618 -3.3225,-0.5487 z m 20.2866,8.21279 -1.0018,6.08851 -6.0885,1.00426 6.0885,1.00174 1.0018,6.08851 1.0042,-6.08851 6.0886,-1.00174 -6.0886,-1.00426 z m 36.7953,4.825 -0.4027,2.44144 -2.444,0.40271 2.444,0.40271 0.4027,2.44397 0.4001,-2.44397 2.444,-0.40271 -2.444,-0.40271 z"
         id="path5257-0"
         inkscape:connector-curvature="0" />
    </g>
  </g>
</svg>
